<svg width="36" height="29" viewBox="0 0 36 29" fill="none" xmlns="http://www.w3.org/2000/svg">
<path d="M36 3.4362C34.6496 4.02704 33.2208 4.41629 31.7588 4.59167C33.2953 3.6857 34.4507 2.24642 35.0085 0.543761C33.5558 1.3991 31.9692 1.99925 30.3165 2.3185C29.6206 1.58408 28.7836 0.999833 27.8565 0.601266C26.9293 0.202699 25.9314 -0.00186334 24.9233 1.2789e-05C20.8418 1.2789e-05 17.5388 3.27761 17.5388 7.31796C17.5359 7.87996 17.5998 8.44028 17.7292 8.98696C14.8025 8.84881 11.9366 8.09702 9.31499 6.77969C6.69333 5.46236 4.37361 3.60851 2.50425 1.33673C1.84843 2.44999 1.5016 3.72019 1.5 5.01458C1.5 7.55207 2.81475 9.79503 4.8 11.1091C3.6238 11.081 2.47169 10.7675 1.4415 10.1953V10.2859C1.4415 13.8354 3.9915 16.7882 7.3665 17.4604C6.73184 17.6307 6.07783 17.7171 5.421 17.7171C4.95493 17.718 4.48993 17.6724 4.03275 17.5812C4.971 20.4888 7.70175 22.6033 10.9365 22.6637C8.30803 24.7035 5.08096 25.806 1.7625 25.7978C1.17346 25.797 0.584974 25.7617 0 25.6921C3.37588 27.8627 7.30008 29.0109 11.3055 28.9999C24.9075 28.9999 32.3385 17.8455 32.3385 8.17134C32.3385 7.85415 32.3302 7.53697 32.3153 7.22733C33.7576 6.19426 35.0054 4.91045 36 3.4362Z" fill="#E40037"/>
</svg>
